<?xml version="1.0" encoding="UTF-8" standalone="no"?>
<!-- Created with Inkscape (http://www.inkscape.org/) -->

<svg
   xmlns:dc="http://purl.org/dc/elements/1.1/"
   xmlns:cc="http://creativecommons.org/ns#"
   xmlns:rdf="http://www.w3.org/1999/02/22-rdf-syntax-ns#"
   xmlns:svg="http://www.w3.org/2000/svg"
   xmlns="http://www.w3.org/2000/svg"
   xmlns:sodipodi="http://sodipodi.sourceforge.net/DTD/sodipodi-0.dtd"
   xmlns:inkscape="http://www.inkscape.org/namespaces/inkscape"
   width="6450"
   height="6450"
   viewBox="0 0 6450 6450"
   version="1.1"
   id="svg914"
   inkscape:version="0.92.2 (5c3e80d, 2017-08-06)"
   sodipodi:docname="basket.svg">
  <defs
     id="defs908" />
  <sodipodi:namedview
     id="base"
     pagecolor="#ffffff"
     bordercolor="#666666"
     borderopacity="1.0"
     inkscape:pageopacity="0.0"
     inkscape:pageshadow="2"
     inkscape:zoom="0.08"
     inkscape:cx="3199.0679"
     inkscape:cy="-2194.6516"
     inkscape:document-units="px"
     inkscape:current-layer="layer1"
     showgrid="false"
     inkscape:window-width="1366"
     inkscape:window-height="705"
     inkscape:window-x="-8"
     inkscape:window-y="-8"
     inkscape:window-maximized="1"
     inkscape:snap-global="false"
     units="px"
     showguides="false" />
  <metadata
     id="metadata911">
    <rdf:RDF>
      <cc:Work
         rdf:about="">
        <dc:format>image/svg+xml</dc:format>
        <dc:type
           rdf:resource="http://purl.org/dc/dcmitype/StillImage" />
        <dc:title></dc:title>
      </cc:Work>
    </rdf:RDF>
  </metadata>
  <g
     inkscape:label="41"
     inkscape:groupmode="layer"
     id="layer1"
     style="display:inline"
     transform="translate(0,1409.5625)">
    <path
       style="display:inline;opacity:1;fill:#008080;fill-opacity:1;stroke:none;stroke-width:7.49179173;stroke-miterlimit:4;stroke-dasharray:none;stroke-opacity:1"
       d="m 3068.2369,5707.4113 c -6.6576,121.7397 -49.7257,253.2196 -155.9157,323.4539 -118.3082,77.0192 -278.764,76.3061 -402.2314,11.6189 -108.0759,-56.0474 -169.0865,-174.3039 -182.8009,-291.8714 -30.23,-212.436 40.5098,-444.2978 206.9285,-584.8269 54.6465,-43.8801 124.993,-90.8764 198.2385,-70.2574 111.1263,36.2968 194.3978,128.7407 251.8613,227.3088 66.1305,115.8939 93.2005,251.9195 83.9197,384.5741 z"
       id="path819-6-0-0-59"
       inkscape:connector-curvature="0" />
  </g>
  <g
     inkscape:groupmode="layer"
     id="layer46"
     inkscape:label="40"
     style="display:inline"
     transform="translate(0,1409.5625)">
    <path
       style="display:inline;opacity:1;fill:#ff2a2a;fill-opacity:1;stroke:none;stroke-width:7.49179173;stroke-miterlimit:4;stroke-dasharray:none;stroke-opacity:1"
       d="m 4138.7137,5712.7133 c -6.6576,121.7397 -49.7256,253.2199 -155.9157,323.4539 -118.3082,77.0192 -278.764,76.3061 -402.2314,11.6188 -108.0759,-56.0474 -169.0861,-174.3038 -182.8009,-291.8714 -30.2299,-212.4359 40.5098,-444.2977 206.9285,-584.8268 54.6465,-43.8802 124.993,-90.8764 198.2385,-70.2574 111.1264,36.2971 194.3979,128.741 251.8613,227.3088 66.1305,115.8939 93.2005,251.9195 83.9197,384.5741 z"
       id="path819-6-0-0-8-5"
       inkscape:connector-curvature="0" />
  </g>
  <g
     inkscape:groupmode="layer"
     id="layer45"
     inkscape:label="39"
     style="display:inline"
     transform="translate(0,1409.5625)">
    <path
       style="display:inline;opacity:1;fill:#ffcc00;fill-opacity:1;stroke:none;stroke-width:7.49179173;stroke-miterlimit:4;stroke-dasharray:none;stroke-opacity:1"
       d="m 3589.5385,5662.7417 c -6.658,121.7398 -49.726,253.2196 -155.9161,323.454 -118.3079,77.0192 -278.7571,76.3061 -402.2241,11.6188 -108.0763,-56.0474 -169.0865,-174.3039 -182.8013,-291.8714 -30.2296,-212.4356 40.5098,-444.2977 206.9285,-584.8268 54.6465,-43.8802 124.9931,-90.8764 198.2344,-70.2574 111.1236,36.2971 194.3951,128.741 251.8585,227.3092 66.1305,115.8938 93.2005,251.9191 83.9201,384.5736 z"
       id="path819-6-0-0-6-0"
       inkscape:connector-curvature="0" />
  </g>
  <g
     inkscape:groupmode="layer"
     id="layer44"
     inkscape:label="38"
     style="display:inline"
     transform="translate(0,1409.5625)">
    <path
       style="display:inline;opacity:1;fill:#ff2a2a;fill-opacity:1;stroke:none;stroke-width:7.49179173;stroke-miterlimit:4;stroke-dasharray:none;stroke-opacity:1"
       d="m 2711.005,6337.137 c -6.6576,121.7397 -49.726,253.2192 -155.9156,323.4524 -118.3083,77.0192 -278.7644,76.3061 -402.2314,11.6188 -108.076,-56.0474 -169.0866,-174.3023 -182.801,-291.8699 -30.2299,-212.4359 40.5098,-444.2977 206.9286,-584.8268 54.6464,-43.8801 124.9929,-90.8764 198.2384,-70.2574 111.1264,36.2968 194.3979,128.7407 251.8614,227.3088 66.1304,115.8939 93.2004,251.9195 83.9196,384.5741 z"
       id="path819-6-0-0-8-4"
       inkscape:connector-curvature="0" />
  </g>
  <g
     inkscape:groupmode="layer"
     id="layer43"
     inkscape:label="37"
     style="display:inline"
     transform="translate(0,1409.5625)">
    <path
       style="display:inline;opacity:1;fill:#008080;fill-opacity:1;stroke:none;stroke-width:7.49179173;stroke-miterlimit:4;stroke-dasharray:none;stroke-opacity:1"
       d="m 4433.3356,6328.5455 c -6.6576,121.7397 -49.726,253.2196 -155.9156,323.4494 -118.3083,77.0172 -278.7644,76.3041 -402.2314,11.6184 -108.076,-56.0444 -169.0866,-174.2989 -182.8014,-291.8664 -30.2295,-212.4356 40.5102,-444.2978 206.9289,-584.8269 54.6465,-43.8801 124.993,-90.8764 198.2385,-70.2574 111.1264,36.2972 194.3979,128.7411 251.8614,227.3089 66.1301,115.8938 93.2004,251.9195 83.9196,384.574 z"
       id="path819-6-0-0-57"
       inkscape:connector-curvature="0" />
  </g>
  <g
     inkscape:groupmode="layer"
     id="layer42"
     inkscape:label="36"
     style="display:inline"
     transform="translate(0,1409.5625)">
    <path
       style="display:inline;opacity:1;fill:#ff6600;fill-opacity:1;stroke:none;stroke-width:7.49179173;stroke-miterlimit:4;stroke-dasharray:none;stroke-opacity:1"
       d="m 3871.89,6289.4246 c -6.6576,121.7393 -49.726,253.2196 -155.9157,323.452 -118.3082,77.0196 -278.7644,76.3064 -402.2315,11.6188 -108.0707,-56.0455 -169.0795,-174.3023 -182.7939,-291.8698 -30.2299,-212.4356 40.5098,-444.2978 206.9215,-584.8265 54.6466,-43.8805 124.9931,-90.8768 198.2386,-70.2574 111.1263,36.2968 194.3979,128.7407 251.8613,227.3088 66.1305,115.8939 93.2005,251.9195 83.9197,384.5741 z"
       id="path819-6-0-0-0-1"
       inkscape:connector-curvature="0" />
  </g>
  <g
     inkscape:groupmode="layer"
     id="layer41"
     inkscape:label="35"
     style="display:inline"
     transform="translate(0,1409.5625)">
    <path
       style="display:inline;opacity:1;fill:#ff2a2a;fill-opacity:1;stroke:none;stroke-width:7.49179173;stroke-miterlimit:4;stroke-dasharray:none;stroke-opacity:1"
       d="m 4784.8023,6902.4628 c -6.6576,121.7398 -49.726,253.2201 -155.9157,323.4541 -118.3082,77.0192 -278.7639,76.306 -402.2314,11.6188 -108.0759,-56.0474 -169.0865,-174.3039 -182.8009,-291.8715 -30.2299,-212.436 40.5098,-444.2962 206.9285,-584.8249 54.6465,-43.8805 124.993,-90.8768 198.2385,-70.2574 111.1264,36.2967 194.3979,128.7407 251.8613,227.3088 66.1305,115.8919 93.2005,251.9176 83.9197,384.5721 z"
       id="path819-6-0-0-8-8"
       inkscape:connector-curvature="0" />
  </g>
  <g
     inkscape:groupmode="layer"
     id="layer40"
     inkscape:label="34"
     style="display:inline"
     transform="translate(0,1409.5625)">
    <path
       style="display:inline;opacity:1;fill:#ffcc00;fill-opacity:1;stroke:none;stroke-width:7.49179173;stroke-miterlimit:4;stroke-dasharray:none;stroke-opacity:1"
       d="m 3298.7983,6320.9848 c -6.6573,121.7398 -49.7232,253.22 -155.9087,323.4524 -118.3083,77.0188 -278.764,76.3061 -402.2315,11.6188 -108.0759,-56.047 -169.0865,-174.3023 -182.8009,-291.8698 -30.2299,-212.4356 40.5094,-444.2978 206.9285,-584.8269 54.6465,-43.8801 124.9934,-90.8764 198.2385,-70.2574 111.1264,36.2972 194.3979,128.7411 251.8592,227.3092 66.1267,115.8939 93.1952,251.9192 83.9149,384.5737 z"
       id="path819-6-0-0-6-6"
       inkscape:connector-curvature="0" />
  </g>
  <g
     inkscape:groupmode="layer"
     id="layer39"
     inkscape:label="33"
     style="display:inline"
     transform="translate(0,1409.5625)">
    <path
       style="display:inline;opacity:1;fill:#ff6600;fill-opacity:1;stroke:none;stroke-width:7.49179173;stroke-miterlimit:4;stroke-dasharray:none;stroke-opacity:1"
       d="m 2369.7407,6983.9681 c -6.6579,121.7399 -49.726,253.2197 -155.916,323.4541 -118.3079,77.0192 -278.764,76.3061 -402.231,11.6188 -108.0764,-56.0474 -169.0866,-174.3039 -182.8014,-291.8719 -30.2295,-212.4356 40.5098,-444.2962 206.9286,-584.8249 54.6464,-43.8801 124.9933,-90.8768 198.2388,-70.2574 111.1264,36.2968 194.3979,128.7407 251.861,227.3076 66.1305,115.8936 93.2004,251.9192 83.92,384.5737 z"
       id="path819-6-0-0-0-6"
       inkscape:connector-curvature="0" />
  </g>
  <g
     inkscape:groupmode="layer"
     id="layer38"
     inkscape:label="32"
     style="display:inline"
     transform="translate(0,1409.5625)">
    <path
       style="display:inline;opacity:1;fill:#ffcc00;fill-opacity:1;stroke:none;stroke-width:7.49179173;stroke-miterlimit:4;stroke-dasharray:none;stroke-opacity:1"
       d="m 4171.0184,6934.7675 c -6.658,121.7399 -49.726,253.2197 -155.916,323.4541 -118.3079,77.0188 -278.764,76.3061 -402.2311,11.6188 -108.0763,-56.0474 -169.0865,-174.3039 -182.8013,-291.8715 -30.2295,-212.4356 40.5098,-444.2962 206.9286,-584.8253 54.6464,-43.8801 124.9933,-90.8764 198.2388,-70.2574 111.126,36.2972 194.3975,128.7411 251.861,227.3092 66.1304,115.8923 93.2004,251.9176 83.92,384.5721 z"
       id="path819-6-0-0-6-2"
       inkscape:connector-curvature="0" />
  </g>
  <g
     inkscape:groupmode="layer"
     id="layer37"
     inkscape:label="31"
     style="display:inline"
     transform="translate(0,1409.5625)">
    <path
       style="display:inline;opacity:1;fill:#ff6600;fill-opacity:1;stroke:none;stroke-width:7.49179173;stroke-miterlimit:4;stroke-dasharray:none;stroke-opacity:1"
       d="m 5103.3399,7533.5155 c -6.6576,121.7398 -49.726,253.22 -155.9156,323.454 -118.3083,77.0192 -278.7644,76.3061 -402.2314,11.6188 -108.076,-56.0474 -169.0866,-174.3039 -182.801,-291.8714 -30.2299,-212.436 40.5098,-444.2974 206.9286,-584.8266 54.6464,-43.8801 124.9929,-90.8764 198.2384,-70.2574 111.1264,36.2968 194.3979,128.7408 251.8614,227.3089 66.1304,115.8935 93.2004,251.9192 83.9196,384.5737 z"
       id="path819-6-0-0-0"
       inkscape:connector-curvature="0" />
  </g>
  <g
     inkscape:groupmode="layer"
     id="layer36"
     inkscape:label="30"
     style="display:inline"
     transform="translate(0,1409.5625)">
    <path
       style="display:inline;opacity:1;fill:#008080;fill-opacity:1;stroke:none;stroke-width:7.49179173;stroke-miterlimit:4;stroke-dasharray:none;stroke-opacity:1"
       d="m 1965.7267,7581.2279 c -6.6579,121.7398 -49.726,253.22 -155.916,323.4541 -118.3079,77.0192 -278.764,76.3061 -402.231,11.6188 -108.0764,-56.0475 -169.0866,-174.304 -182.8013,-291.8715 -30.2296,-212.4356 40.5097,-444.2978 206.9285,-584.8269 54.6465,-43.8802 124.9934,-90.8765 198.2388,-70.2574 111.126,36.2971 194.3975,128.7411 251.861,227.3089 66.1305,115.8939 93.2005,251.9195 83.92,384.574 z"
       id="path819-6-0-0-5"
       inkscape:connector-curvature="0" />
  </g>
  <g
     inkscape:groupmode="layer"
     id="layer35"
     inkscape:label="20-29"
     style="display:inline"
     transform="translate(0,1409.5625)">
    <g
       inkscape:groupmode="layer"
       id="layer34"
       inkscape:label="29"
       style="display:inline">
      <path
         style="display:inline;opacity:1;fill:#008080;fill-opacity:1;stroke:none;stroke-width:7.49179173;stroke-miterlimit:4;stroke-dasharray:none;stroke-opacity:1"
         d="m 2947.3385,6951.2914 c -6.6579,121.7398 -49.726,253.2201 -155.9156,323.454 -118.3083,77.0192 -278.7644,76.3061 -402.2314,11.6189 -108.0764,-56.0475 -169.0866,-174.3039 -182.8014,-291.8715 -30.2295,-212.4356 40.5098,-444.2963 206.9286,-584.8254 54.6464,-43.8801 124.9933,-90.8764 198.2388,-70.2573 111.1264,36.2971 194.3979,128.741 251.861,227.3088 66.1305,115.8923 93.2004,251.9179 83.92,384.5725 z"
         id="path819-6-0-0-67"
         inkscape:connector-curvature="0" />
    </g>
    <g
       inkscape:groupmode="layer"
       id="layer33"
       inkscape:label="28"
       style="display:inline">
      <path
         style="display:inline;opacity:1;fill:#ffcc00;fill-opacity:1;stroke:none;stroke-width:7.49179173;stroke-miterlimit:4;stroke-dasharray:none;stroke-opacity:1"
         d="m 3561.1163,6935.1392 c -6.658,121.7399 -49.726,253.2201 -155.9161,323.454 -118.3072,77.0193 -278.7571,76.3061 -402.2241,11.6189 -108.0763,-56.0474 -169.0865,-174.3039 -182.8013,-291.8715 -30.2296,-212.4356 40.5098,-444.2962 206.9285,-584.8253 54.6465,-43.8802 124.9934,-90.8764 198.2361,-70.2574 111.1217,36.2971 194.3934,128.741 251.8568,227.3092 66.1305,115.8923 93.2005,251.9176 83.9201,384.5721 z"
         id="path819-6-0-0-6"
         inkscape:connector-curvature="0" />
    </g>
    <g
       inkscape:groupmode="layer"
       id="layer32"
       inkscape:label="27"
       style="display:inline">
      <path
         style="display:inline;opacity:1;fill:#ffcc00;fill-opacity:1;stroke:none;stroke-width:7.49179173;stroke-miterlimit:4;stroke-dasharray:none;stroke-opacity:1"
         d="m 2563.5671,7581.6003 c -6.6576,121.7394 -49.7256,253.2196 -155.9156,323.4536 -118.3083,77.0196 -278.764,76.3065 -402.2311,11.6189 -108.0763,-56.0471 -169.0865,-174.3039 -182.8013,-291.8715 -30.2299,-212.4355 40.5098,-444.2977 206.9285,-584.8264 54.6465,-43.8806 124.9934,-90.8769 198.2389,-70.2575 111.126,36.2967 194.3975,128.7408 251.8609,227.3089 66.1305,115.8939 93.2005,251.9195 83.9197,384.574 z"
         id="path819-6-0-0-0-4"
         inkscape:connector-curvature="0" />
    </g>
    <g
       inkscape:groupmode="layer"
       id="layer31"
       inkscape:label="26"
       style="display:inline">
      <path
         style="display:inline;opacity:1;fill:#ff6600;fill-opacity:1;stroke:none;stroke-width:7.49179173;stroke-miterlimit:4;stroke-dasharray:none;stroke-opacity:1"
         d="m 1628.4131,8211.5366 c -6.6576,121.7397 -49.7256,253.2198 -155.9157,323.4539 -118.3082,77.0193 -278.764,76.3062 -402.2314,11.6188 -108.07594,-56.0473 -169.08652,-174.3038 -182.80092,-291.8714 -30.22993,-212.4357 40.50979,-444.2979 206.92852,-584.8266 54.6465,-43.8805 124.993,-90.8768 198.2385,-70.2574 111.1263,36.2968 194.3979,128.7407 251.8613,227.3088 66.1305,115.8938 93.2005,251.9194 83.9197,384.5739 z"
         id="path819-6-0-0-0-5"
         inkscape:connector-curvature="0" />
    </g>
    <g
       inkscape:groupmode="layer"
       id="layer30"
       inkscape:label="25"
       style="display:inline">
      <path
         style="display:inline;opacity:1;fill:#008080;fill-opacity:1;stroke:none;stroke-width:7.49179173;stroke-miterlimit:4;stroke-dasharray:none;stroke-opacity:1"
         d="m 4431.9619,7571.7379 c -6.6576,121.7397 -49.726,253.2196 -155.9157,323.4535 -118.3082,77.0194 -278.7644,76.3063 -402.2314,11.6189 -108.076,-56.0474 -169.0865,-174.3035 -182.8009,-291.8714 -30.23,-212.4356 40.5098,-444.2978 206.9285,-584.8265 54.6465,-43.8806 124.993,-90.8769 198.2385,-70.2575 111.1263,36.2968 194.3978,128.7408 251.8613,227.3089 66.1301,115.8939 93.2005,251.9195 83.9197,384.5741 z"
         id="path819-6-0-0"
         inkscape:connector-curvature="0" />
    </g>
    <g
       inkscape:groupmode="layer"
       id="layer29"
       inkscape:label="24"
       style="display:inline">
      <path
         style="display:inline;opacity:1;fill:#008080;fill-opacity:1;stroke:none;stroke-width:7.49179173;stroke-miterlimit:4;stroke-dasharray:none;stroke-opacity:1"
         d="m 5434.7727,8114.2511 c -6.6576,121.7397 -49.7256,253.2199 -155.9157,323.4539 -118.3082,77.0192 -278.764,76.3065 -402.2314,11.6188 -108.0759,-56.0474 -169.0861,-174.3038 -182.8009,-291.8714 -30.2299,-212.4356 40.5098,-444.2978 206.9285,-584.8265 54.6465,-43.8805 124.993,-90.8768 198.2385,-70.2574 111.1264,36.2968 194.3979,128.7407 251.8613,227.3088 66.1305,115.8939 93.2005,251.9192 83.9197,384.5738 z"
         id="path819-6-0-0-4"
         inkscape:connector-curvature="0" />
    </g>
    <g
       inkscape:groupmode="layer"
       id="layer28"
       inkscape:label="23"
       style="display:inline">
      <path
         style="display:inline;opacity:1;fill:#008080;fill-opacity:1;stroke:none;stroke-width:7.49179173;stroke-miterlimit:4;stroke-dasharray:none;stroke-opacity:1"
         d="m 3221.9231,7597.3805 c -6.6571,121.7397 -49.723,253.2196 -155.913,323.4536 -118.3082,77.0193 -278.764,76.3063 -402.2314,11.6189 -108.076,-56.0472 -169.0862,-174.3036 -182.8009,-291.8715 -30.23,-212.4356 40.5097,-444.2978 206.9285,-584.8265 54.6465,-43.8802 124.9934,-90.8769 198.2385,-70.2575 111.1263,36.2968 194.3978,128.7408 251.8613,227.3089 66.1289,115.8939 93.1974,251.9195 83.917,384.5741 z"
         id="path819-6-0-0-84"
         inkscape:connector-curvature="0" />
    </g>
    <g
       inkscape:groupmode="layer"
       id="layer27"
       inkscape:label="22"
       style="display:inline">
      <path
         style="display:inline;opacity:1;fill:#ff2a2a;fill-opacity:1;stroke:none;stroke-width:7.49179173;stroke-miterlimit:4;stroke-dasharray:none;stroke-opacity:1"
         d="m 3835.7035,7597.3805 c -6.6576,121.7397 -49.7256,253.2199 -155.9157,323.4537 -118.3082,77.0192 -278.764,76.3061 -402.2303,11.6189 -108.0701,-56.0476 -169.0803,-174.3037 -182.7951,-291.8713 -30.2299,-212.4359 40.5098,-444.2981 206.9215,-584.8268 54.6466,-43.8806 124.9935,-90.8769 198.2386,-70.2575 111.1264,36.2968 194.3979,128.7408 251.8613,227.3089 66.1305,115.8939 93.2005,251.9195 83.9197,384.5741 z"
         id="path819-6-0-0-8"
         inkscape:connector-curvature="0" />
    </g>
    <g
       inkscape:groupmode="layer"
       id="layer26"
       inkscape:label="21"
       style="display:inline">
      <path
         style="display:inline;opacity:1;fill:#008080;fill-opacity:1;stroke:none;stroke-width:7.49179173;stroke-miterlimit:4;stroke-dasharray:none;stroke-opacity:1"
         d="m 2236.6412,8203.1695 c -6.6579,121.7397 -49.726,253.2198 -155.9156,323.4539 -118.3082,77.0192 -278.7644,76.3062 -402.2314,11.6188 -108.0764,-56.0473 -169.0866,-174.3038 -182.8013,-291.8714 -30.2296,-212.4357 40.5097,-444.2978 206.9285,-584.8269 54.6465,-43.8801 124.9934,-90.8764 198.2388,-70.2574 111.1264,36.2972 194.3979,128.7411 251.861,227.3088 66.1305,115.8941 93.2005,251.9197 83.92,384.5742 z"
         id="path819-6-0-0-61"
         inkscape:connector-curvature="0" />
    </g>
    <g
       inkscape:groupmode="layer"
       id="layer25"
       inkscape:label="20"
       style="display:inline">
      <path
         style="display:inline;opacity:1;fill:#ff6600;fill-opacity:1;stroke:none;stroke-width:7.49179173;stroke-miterlimit:4;stroke-dasharray:none;stroke-opacity:1"
         d="m 1351.6645,8776.8642 c -6.6576,121.7397 -49.7256,253.2198 -155.9156,323.4538 -118.3083,77.0193 -278.76403,76.3063 -402.23144,11.6189 -108.07596,-56.0473 -169.08653,-174.3039 -182.80093,-291.8715 -30.22994,-212.4358 40.50979,-444.2978 206.92852,-584.8268 54.64648,-43.8802 124.993,-90.8765 198.23845,-70.2573 111.1264,36.2968 194.3979,128.7407 251.8614,227.3088 66.1304,115.8939 93.2004,251.9194 83.9196,384.5741 z"
         id="path819-6-0-0-0-85"
         inkscape:connector-curvature="0" />
    </g>
  </g>
  <g
     inkscape:groupmode="layer"
     id="layer24"
     inkscape:label="10-19"
     style="display:inline"
     transform="translate(0,1409.5625)">
    <g
       inkscape:groupmode="layer"
       id="layer23"
       inkscape:label="19"
       style="display:inline">
      <path
         style="display:inline;opacity:1;fill:#ff6600;fill-opacity:1;stroke:none;stroke-width:7.49179173;stroke-miterlimit:4;stroke-dasharray:none;stroke-opacity:1"
         d="m 4727.9572,8146.9277 c -6.6576,121.7397 -49.7257,253.2198 -155.9157,323.4538 -118.3082,77.0193 -278.764,76.3063 -402.2314,11.6188 -108.076,-56.0472 -169.0862,-174.3038 -182.8009,-291.8714 -30.23,-212.4357 40.5097,-444.2975 206.9285,-584.8266 54.6465,-43.8802 124.993,-90.8768 198.2385,-70.2574 111.1263,36.2967 194.3978,128.7406 251.8613,227.3088 66.1305,115.8939 93.2005,251.9194 83.9197,384.574 z"
         id="path819-6-0-0-0-0"
         inkscape:connector-curvature="0" />
    </g>
    <g
       inkscape:groupmode="layer"
       id="layer22"
       inkscape:label="18"
       style="display:inline">
      <path
         style="display:inline;opacity:1;fill:#ffcc00;fill-opacity:1;stroke:none;stroke-width:7.49179173;stroke-miterlimit:4;stroke-dasharray:none;stroke-opacity:1"
         d="m 5743.9411,8739.8181 c -6.6579,121.7397 -49.726,253.2199 -155.916,323.4539 -118.3079,77.0192 -278.764,76.3061 -402.231,11.6189 -108.0764,-56.0474 -169.0866,-174.3039 -182.8014,-291.8715 -30.2295,-212.4356 40.5098,-444.2978 206.9286,-584.827 54.6464,-43.8801 124.9933,-90.8764 198.2388,-70.2573 111.126,36.2971 194.3975,128.741 251.861,227.3092 66.1305,115.8939 93.2004,251.9191 83.92,384.5738 z"
         id="path819-6-0-0-6-55"
         inkscape:connector-curvature="0" />
    </g>
    <g
       inkscape:groupmode="layer"
       id="layer21"
       inkscape:label="17"
       style="display:inline">
      <path
         style="display:inline;opacity:1;fill:#ff2a2a;fill-opacity:1;stroke:none;stroke-width:7.49179173;stroke-miterlimit:4;stroke-dasharray:none;stroke-opacity:1"
         d="m 4154.8659,8178.4881 c -6.6576,121.7397 -49.7257,253.2199 -155.9157,323.4539 -118.3082,77.0192 -278.764,76.3061 -402.2314,11.6189 -108.076,-56.0475 -169.0862,-174.3039 -182.8009,-291.8715 -30.23,-212.4359 40.5097,-444.2978 206.9285,-584.8269 54.6465,-43.8801 124.993,-90.8764 198.2385,-70.2574 111.1263,36.2972 194.3978,128.7411 251.8613,227.3088 66.1305,115.894 93.2005,251.9196 83.9197,384.5742 z"
         id="path819-6-0-0-8-6"
         inkscape:connector-curvature="0" />
    </g>
    <g
       inkscape:groupmode="layer"
       id="layer20"
       inkscape:label="16"
       style="display:inline">
      <path
         style="display:inline;opacity:1;fill:#ff6600;fill-opacity:1;stroke:none;stroke-width:7.49179173;stroke-miterlimit:4;stroke-dasharray:none;stroke-opacity:1"
         d="m 2854.3073,8179.2322 c -6.6576,121.7397 -49.726,253.2198 -155.9157,323.4538 -118.3082,77.0193 -278.7644,76.3063 -402.2314,11.6188 -108.0763,-56.0472 -169.0865,-174.3038 -182.8013,-291.8714 -30.2296,-212.4357 40.5098,-444.2977 206.9289,-584.8268 54.6461,-43.8801 124.993,-90.8764 198.2385,-70.2574 111.1263,36.2972 194.3978,128.7411 251.8609,227.3088 66.1305,115.8941 93.2009,251.9196 83.9201,384.5742 z"
         id="path819-6-0-0-0-3"
         inkscape:connector-curvature="0" />
    </g>
    <g
       inkscape:groupmode="layer"
       id="layer19"
       inkscape:label="15"
       style="display:inline">
      <path
         style="display:inline;opacity:1;fill:#ffcc00;fill-opacity:1;stroke:none;stroke-width:7.49179173;stroke-miterlimit:4;stroke-dasharray:none;stroke-opacity:1"
         d="m 3508.7772,8146.1835 c -6.6575,121.7398 -49.726,253.22 -155.9156,323.454 -118.3046,77.0191 -278.7571,76.3061 -402.2241,11.6189 -108.0764,-56.0475 -169.0869,-174.304 -182.8013,-291.8715 -30.2296,-212.4356 40.5097,-444.2976 206.9285,-584.8267 54.6465,-43.8802 124.9934,-90.8764 198.2385,-70.2574 111.1202,36.2971 194.3909,128.741 251.8544,227.3092 66.1305,115.8939 93.2001,251.919 83.9196,384.5735 z"
         id="path819-6-0-0-6-5"
         inkscape:connector-curvature="0" />
    </g>
    <g
       inkscape:groupmode="layer"
       id="layer18"
       inkscape:label="14"
       style="display:inline">
      <path
         style="display:inline;opacity:1;fill:#ff2a2a;fill-opacity:1;stroke:none;stroke-width:7.49179173;stroke-miterlimit:4;stroke-dasharray:none;stroke-opacity:1"
         d="m 1958.0097,8776.1201 c -6.658,121.7398 -49.726,253.22 -155.9161,323.454 -118.3082,77.0192 -278.764,76.306 -402.231,11.6188 -108.0763,-56.0474 -169.0865,-174.3039 -182.8013,-291.8714 -30.2296,-212.4361 40.5098,-444.298 206.9285,-584.827 54.6465,-43.8802 124.9934,-90.8766 198.2389,-70.2573 111.126,36.2968 194.3978,128.7407 251.8609,227.3088 66.1305,115.8939 93.2005,251.9195 83.9201,384.5741 z"
         id="path819-6-0-0-8-0"
         inkscape:connector-curvature="0" />
    </g>
    <g
       inkscape:groupmode="layer"
       id="layer17"
       inkscape:label="13"
       style="display:inline">
      <path
         style="display:inline;opacity:1;fill:#008080;fill-opacity:1;stroke:none;stroke-width:7.49179173;stroke-miterlimit:4;stroke-dasharray:none;stroke-opacity:1"
         d="m 1097.0131,9375.9962 c -6.6576,121.7397 -49.7256,253.2199 -155.91567,323.4539 -118.30822,77.0192 -278.76399,76.3061 -402.2314,11.6189 -108.07596,-56.0475 -169.08617,-174.3039 -182.80095,-291.8715 -30.22993,-212.4356 40.5098,-444.2977 206.92854,-584.8269 54.64647,-43.8801 124.99299,-90.8764 198.23847,-70.2572 111.12637,36.297 194.39787,128.7409 251.86131,227.3087 66.1305,115.8943 93.2005,251.9195 83.9197,384.5741 z"
         id="path819-6-0-0-68"
         inkscape:connector-curvature="0" />
    </g>
    <g
       inkscape:groupmode="layer"
       id="layer16"
       inkscape:label="12"
       style="display:inline">
      <path
         style="display:inline;opacity:1;fill:#ff2a2a;fill-opacity:1;stroke:none;stroke-width:7.49179173;stroke-miterlimit:4;stroke-dasharray:none;stroke-opacity:1"
         d="m 5091.6943,8792.2723 c -6.6576,121.7397 -49.7257,253.2199 -155.9157,323.4539 -118.3082,77.0192 -278.764,76.3061 -402.2314,11.6188 -108.076,-56.0474 -169.0862,-174.3038 -182.8009,-291.8714 -30.23,-212.436 40.5097,-444.2979 206.9285,-584.8269 54.6465,-43.8802 124.9934,-90.8766 198.2385,-70.2573 111.1263,36.2968 194.3978,128.7407 251.8613,227.3088 66.1305,115.8938 93.2005,251.9194 83.9197,384.5741 z"
         id="path819-6-0-0-8-56"
         inkscape:connector-curvature="0" />
    </g>
    <g
       inkscape:groupmode="layer"
       id="layer15"
       inkscape:label="11"
       style="display:inline">
      <path
         style="display:inline;opacity:1;fill:#ffcc00;fill-opacity:1;stroke:none;stroke-width:7.49179173;stroke-miterlimit:4;stroke-dasharray:none;stroke-opacity:1"
         d="m 6076.2441,9375.0966 c -6.6579,121.7397 -49.726,253.2199 -155.916,323.4539 -118.3078,77.0192 -278.764,76.3061 -402.231,11.6189 -108.0764,-56.0475 -169.0866,-174.3039 -182.8013,-291.8715 -30.2296,-212.4356 40.5097,-444.2977 206.9285,-584.8268 54.6465,-43.8802 124.9934,-90.8764 198.2388,-70.2574 111.126,36.2971 194.3975,128.741 251.861,227.3092 66.1305,115.8939 93.2005,251.9191 83.92,384.5737 z"
         id="path819-6-0-0-6-95"
         inkscape:connector-curvature="0" />
    </g>
    <g
       inkscape:groupmode="layer"
       id="layer14"
       inkscape:label="10"
       style="display:inline">
      <path
         style="display:inline;opacity:1;fill:#008080;fill-opacity:1;stroke:none;stroke-width:7.49179173;stroke-miterlimit:4;stroke-dasharray:none;stroke-opacity:1"
         d="m 2559.6853,8760.3399 c -6.6575,121.7397 -49.726,253.2198 -155.9156,323.4539 -118.3082,77.0192 -278.764,76.3062 -402.2314,11.6188 -108.076,-56.0473 -169.0865,-174.3038 -182.8009,-291.8714 -30.23,-212.4359 40.5097,-444.2979 206.9285,-584.8268 54.6465,-43.8803 124.993,-90.8766 198.2384,-70.2574 111.1264,36.2969 194.3979,128.7408 251.8614,227.3089 66.1305,115.8938 93.2004,251.9194 83.9196,384.574 z"
         id="path819-6-0-0-9"
         inkscape:connector-curvature="0" />
    </g>
  </g>
  <g
     inkscape:groupmode="layer"
     id="layer12"
     inkscape:label="09"
     style="display:inline"
     transform="translate(0,1409.5625)">
    <path
       style="display:inline;opacity:1;fill:#ff2a2a;fill-opacity:1;stroke:none;stroke-width:7.49179173;stroke-miterlimit:4;stroke-dasharray:none;stroke-opacity:1"
       d="m 5413.8462,9410.4246 c -6.6576,121.7398 -49.7256,253.22 -155.9156,323.454 -118.3083,77.0192 -278.764,76.3061 -402.2311,11.6188 -108.0763,-56.0474 -169.0865,-174.3039 -182.8013,-291.8714 -30.2299,-212.436 40.5098,-444.2977 206.9285,-584.8268 54.6465,-43.8802 124.9934,-90.8764 198.2389,-70.2574 111.126,36.2967 194.3975,128.7406 251.861,227.3088 66.1304,115.8939 93.2004,251.9195 83.9196,384.574 z"
       id="path819-6-0-0-8-2"
       inkscape:connector-curvature="0" />
  </g>
  <g
     inkscape:groupmode="layer"
     id="layer11"
     inkscape:label="08"
     style="display:inline"
     transform="translate(0,1409.5625)">
    <path
       style="display:inline;opacity:1;fill:#ff2a2a;fill-opacity:1;stroke:none;stroke-width:7.49179173;stroke-miterlimit:4;stroke-dasharray:none;stroke-opacity:1"
       d="m 1705.994,9381.5157 c -6.6576,121.7397 -49.726,253.22 -155.9157,323.4539 -118.3082,77.0192 -278.7643,76.3061 -402.2314,11.6189 -108.0759,-56.0474 -169.08651,-174.3039 -182.80129,-291.8714 -30.22956,-212.436 40.50979,-444.2978 206.92849,-584.8268 54.6465,-43.8801 124.9934,-90.8765 198.2389,-70.2574 111.1264,36.2968 194.3979,128.7406 251.8613,227.3087 66.1301,115.8939 93.2005,251.9195 83.9197,384.5741 z"
       id="path819-6-0-0-8-2-3"
       inkscape:connector-curvature="0" />
  </g>
  <g
     inkscape:groupmode="layer"
     id="layer10"
     inkscape:label="07"
     style="display:inline"
     transform="translate(0,1409.5625)">
    <path
       style="display:inline;opacity:1;fill:#ffcc00;fill-opacity:1;stroke:none;stroke-width:7.49179173;stroke-miterlimit:4;stroke-dasharray:none;stroke-opacity:1"
       d="m 4445.6056,8792.2721 c -6.6579,121.7398 -49.726,253.22 -155.916,323.454 -118.3078,77.0192 -278.764,76.3061 -402.231,11.6189 -108.0764,-56.0474 -169.0866,-174.304 -182.8013,-291.8715 -30.2296,-212.4357 40.5098,-444.2978 206.9285,-584.8269 54.6465,-43.8802 124.9934,-90.8764 198.2388,-70.2574 111.126,36.2971 194.3975,128.741 251.861,227.3092 66.1305,115.8938 93.2005,251.9191 83.92,384.5737 z"
       id="path819-6-0-0-6-3"
       inkscape:connector-curvature="0" />
  </g>
  <g
     inkscape:groupmode="layer"
     id="layer9"
     inkscape:label="06"
     style="display:inline"
     transform="translate(0,1409.5625)">
    <path
       style="display:inline;opacity:1;fill:#ffcc00;fill-opacity:1;stroke:none;stroke-width:7.49179173;stroke-miterlimit:4;stroke-dasharray:none;stroke-opacity:1"
       d="m 3169.5879,8759.9678 c -6.658,121.7398 -49.726,253.2199 -155.9161,323.454 -118.3078,77.0191 -278.764,76.3061 -402.231,11.6188 -108.0763,-56.0474 -169.0865,-174.3039 -182.8013,-291.8714 -30.2296,-212.4357 40.5098,-444.2979 206.9285,-584.827 54.6465,-43.8801 124.9934,-90.8764 198.2389,-70.2574 111.126,36.2971 194.3975,128.741 251.8609,227.3092 66.1305,115.8939 93.2003,251.9192 83.9201,384.5738 z"
       id="path819-6-0-0-6-4"
       inkscape:connector-curvature="0" />
  </g>
  <g
     inkscape:groupmode="layer"
     id="layer8"
     inkscape:label="05"
     style="display:inline"
     transform="translate(0,1409.5625)">
    <path
       style="display:inline;opacity:1;fill:#ff2a2a;fill-opacity:1;stroke:none;stroke-width:7.49179173;stroke-miterlimit:4;stroke-dasharray:none;stroke-opacity:1"
       d="m 3847.9739,8753.485 c -6.6576,121.7397 -49.726,253.22 -155.9157,323.4539 -118.3082,77.0193 -278.7643,76.3061 -402.2309,11.6189 -108.0699,-56.0474 -169.0801,-174.3039 -182.7949,-291.8714 -30.2295,-212.4361 40.5102,-444.298 206.9219,-584.827 54.6462,-43.8802 124.9931,-90.8766 198.2386,-70.2573 111.1264,36.2968 194.3979,128.7407 251.8613,227.3088 66.1301,115.8938 93.2005,251.9195 83.9197,384.5741 z"
       id="path819-6-0-0-8-3"
       inkscape:connector-curvature="0" />
  </g>
  <g
     inkscape:groupmode="layer"
     id="layer7"
     inkscape:label="04"
     style="display:inline"
     transform="translate(0,1409.5625)">
    <path
       style="display:inline;opacity:1;fill:#ffcc00;fill-opacity:1;stroke:none;stroke-width:7.49179173;stroke-miterlimit:4;stroke-dasharray:none;stroke-opacity:1"
       d="m 2322.8902,9469.225 c -6.6579,121.7398 -49.726,253.22 -155.916,323.454 -118.3078,77.0192 -278.764,76.306 -402.231,11.6188 -108.0763,-56.0474 -169.0865,-174.3039 -182.8013,-291.8714 -30.2296,-212.4356 40.5098,-444.2978 206.9285,-584.8269 54.6465,-43.8801 124.9934,-90.8764 198.2388,-70.2573 111.126,36.2971 194.3975,128.741 251.861,227.3092 66.1305,115.8938 93.2005,251.9191 83.92,384.5736 z"
       id="path819-6-0-0-6-9"
       inkscape:connector-curvature="0" />
  </g>
  <g
     inkscape:groupmode="layer"
     id="layer6"
     inkscape:label="03"
     style="display:inline"
     transform="translate(0,1409.5625)">
    <path
       style="display:inline;opacity:1;fill:#ff6600;fill-opacity:1;stroke:none;stroke-width:7.49179173;stroke-miterlimit:4;stroke-dasharray:none;stroke-opacity:1"
       d="m 4787.2956,9414.1921 c -6.658,121.7397 -49.726,253.2199 -155.916,323.4539 -118.3079,77.0192 -278.764,76.3061 -402.2311,11.6189 -108.0763,-56.0475 -169.0865,-174.3039 -182.8013,-291.8715 -30.2295,-212.4355 40.5098,-444.2977 206.9285,-584.8268 54.6465,-43.8801 124.9934,-90.8764 198.2389,-70.2572 111.1264,36.2968 194.3979,128.7409 251.861,227.3086 66.1304,115.8939 93.2004,251.9195 83.92,384.5741 z"
       id="path819-6-0-0-0-9"
       inkscape:connector-curvature="0" />
  </g>
  <g
     inkscape:groupmode="layer"
     id="layer5"
     inkscape:label="02"
     style="display:inline"
     transform="translate(0,1409.5625)">
    <path
       style="display:inline;opacity:1;fill:#ff6600;fill-opacity:1;stroke:none;stroke-width:7.49179173;stroke-miterlimit:4;stroke-dasharray:none;stroke-opacity:1"
       d="m 2942.7338,9408.3838 c -6.6576,121.7394 -49.7256,253.2196 -155.9156,323.4535 -118.3083,77.0196 -278.764,76.3065 -402.2315,11.6189 -108.0759,-56.047 -169.0861,-174.3039 -182.8009,-291.8714 -30.2299,-212.4356 40.5098,-444.2978 206.9285,-584.8266 54.6465,-43.8803 124.9934,-90.8766 198.2389,-70.2574 111.126,36.2969 194.3975,128.7408 251.8609,227.3089 66.1305,115.8939 93.2005,251.9195 83.9197,384.5741 z"
       id="path819-6-0-0-0-8"
       inkscape:connector-curvature="0" />
  </g>
  <g
     inkscape:groupmode="layer"
     id="layer4"
     inkscape:label="01"
     style="display:inline"
     transform="translate(0,1409.5625)">
    <path
       style="display:inline;opacity:1;fill:#ff2a2a;fill-opacity:1;stroke:none;stroke-width:7.49179173;stroke-miterlimit:4;stroke-dasharray:none;stroke-opacity:1"
       d="m 4125.0865,9467.7042 c -6.6575,121.7397 -49.726,253.22 -155.9156,323.4543 -118.3082,77.0192 -278.7644,76.3061 -402.2314,11.6189 -108.076,-56.0478 -169.0866,-174.3043 -182.8013,-291.8718 -30.2296,-212.436 40.5101,-444.2978 206.9289,-584.8265 54.6461,-43.8805 124.993,-90.8768 198.2384,-70.2576 111.1264,36.297 194.3979,128.7409 251.8614,227.309 66.1301,115.8935 93.2004,251.9192 83.9196,384.5737 z"
       id="path819-6-0-0-8-1"
       inkscape:connector-curvature="0" />
  </g>
  <g
     inkscape:groupmode="layer"
     id="layer3"
     inkscape:label="00"
     style="display:inline">
    <path
       style="display:inline;opacity:1;fill:#008080;fill-opacity:1;stroke:none;stroke-width:7.49179173;stroke-miterlimit:4;stroke-dasharray:none;stroke-opacity:1"
       d="m 3553.1356,10837.37 c -6.3695,123.743 -51.7899,258.08 -161.4919,327.008 -137.1135,84.359 -327.467,71.396 -452.4757,-29.608 -92.207,-78.322 -129.4953,-201.974 -133.0656,-319.41 -9.8183,-205.541 74.4188,-422.723 245.3304,-544.16 53.3544,-40.126 127.3958,-69.154 191.4615,-36.201 121.8988,52.909 207.362,166.016 259.4178,284.956 41.9475,99.761 58.3499,209.634 50.8235,317.415 z"
       id="path819-6-0-0-55"
       inkscape:connector-curvature="0" />
  </g>
  <g
     inkscape:groupmode="layer"
     id="layer2"
     inkscape:label="Basket"
     style="display:inline">
    <path
       style="opacity:1;fill:#c87137;fill-opacity:1;stroke:none;stroke-width:7.109272;stroke-miterlimit:4;stroke-dasharray:none;stroke-opacity:1"
       d="m 6273.0526,11215.804 c -23.2517,450.243 -358.8926,801.076 -683.2039,1078.726 -442.9388,394.213 -1038.1184,552.513 -1618.3243,583.57 -613.3743,24.659 -1232.0022,44.682 -1842.345,-34.338 -529.9429,-65.057 -1034.67,-299.532 -1417.19377,-673.447 -281.2955,-271.003 -570.19137,-620.94 -535.64361,-1036.341 35.91379,-304.307 409.3483,-177.825 608.00357,-150.184 442.02571,70.934 892.07421,46.527 1337.60941,77.234 831.6815,38.365 1666.123,44.691 2495.3827,-40.04 457.2658,-47.036 916.9316,-65.469 1374.4085,-106.365 160.9139,-60.19 349.9766,-36.556 282.4501,182.232 -0.6512,39.648 -1.1566,79.299 -1.1437,118.953 z"
       id="path1135"
       inkscape:connector-curvature="0" />
    <path
       style="opacity:1;fill:#a05a2c;fill-opacity:1;stroke:none;stroke-width:5.11980629;stroke-miterlimit:4;stroke-dasharray:none;stroke-opacity:1"
       d="m 179.22745,10783.077 c 2026.66705,148.021 4063.80475,155.696 6090.28215,0 241.0988,5.051 240.2085,442.273 0,455.135 -1918.4434,175.109 -3851.2085,186.474 -5771.09278,26.079 C 328.87955,11231.46 56.622424,11301.564 5.0203479,11076.454 -15.79485,10954.313 25.437394,10779.027 179.22745,10783.077 Z"
       id="rect1132"
       inkscape:connector-curvature="0" />
  </g>
</svg>
